<?xml version="1.0" encoding="UTF-8" standalone="no"?>
<svg
   xmlns:dc="http://purl.org/dc/elements/1.1/"
   xmlns:cc="http://creativecommons.org/ns#"
   xmlns:rdf="http://www.w3.org/1999/02/22-rdf-syntax-ns#"
   xmlns:svg="http://www.w3.org/2000/svg"
   xmlns="http://www.w3.org/2000/svg"
   xmlns:xlink="http://www.w3.org/1999/xlink"
   xmlns:sodipodi="http://sodipodi.sourceforge.net/DTD/sodipodi-0.dtd"
   xmlns:inkscape="http://www.inkscape.org/namespaces/inkscape"
   width="719.67584"
   height="503.45935"
   viewBox="0 0 1.4393517 1.0069187"
   version="1.1"
   id="svg8"
   sodipodi:docname="Flag_of_Italy_e_Brazil.svg"
   inkscape:version="0.92.3 (unknown)"
   inkscape:export-filename="/home/dognew/000/MyTrabs/GitHub/corso-di-italiano/imgs/Flag_of_Italy_e_Brazil.svg.png"
   inkscape:export-xdpi="96"
   inkscape:export-ydpi="96">
  <metadata
     id="metadata14">
    <rdf:RDF>
      <cc:Work
         rdf:about="">
        <dc:format>image/svg+xml</dc:format>
        <dc:type
           rdf:resource="http://purl.org/dc/dcmitype/StillImage" />
        <dc:title></dc:title>
      </cc:Work>
    </rdf:RDF>
  </metadata>
  <defs
     id="defs12">
    <linearGradient
       inkscape:collect="always"
       id="linearGradient2340">
      <stop
         style="stop-color:#000000;stop-opacity:1;"
         offset="0"
         id="stop2336" />
      <stop
         style="stop-color:#000000;stop-opacity:0"
         offset="1"
         id="stop2338" />
    </linearGradient>
    <path
       d="m -31.5,0 h 33 a 30,30 0 0 0 30,-30 v -10 a 30,30 0 0 0 -30,-30 h -33 z m 13,-13 h 19 a 19,19 0 0 0 19,-19 v -6 a 19,19 0 0 0 -19,-19 h -19 z"
       id="D"
       inkscape:connector-curvature="0"
       style="fill-rule:evenodd" />
    <path
       d="M 0,0 H 63 V -13 H 12 V -31 H 52 V -43 H 12 V -57 H 60 V -70 H 0 Z"
       transform="translate(-31.5)"
       id="E"
       inkscape:connector-curvature="0" />
    <path
       d="m -26.25,0 h 52.5 v -12 h -40.5 v -16 h 33 v -12 h -33 V -51 H 25 v -12 h -51.25 z"
       id="e"
       inkscape:connector-curvature="0" />
    <g
       id="G">
      <clipPath
         id="gcut">
        <path
           id="path1012"
           d="m -31.5,0 v -70 h 63 V 0 Z M 0,-47 v 12 h 31.5 v -12 z"
           inkscape:connector-curvature="0" />
      </clipPath>
      <use
         id="use1015"
         clip-path="url(#gcut)"
         xlink:href="#O"
         x="0"
         y="0"
         width="100%"
         height="100%" />
      <rect
         id="rect1017"
         width="26.5"
         height="10"
         x="5"
         y="-35" />
      <rect
         id="rect1019"
         width="10"
         height="35"
         x="21.5"
         y="-35" />
    </g>
    <path
       d="m -31.5,0 h 12 v -48 l 14,48 h 11 l 14,-48 V 0 h 12 V -70 H 14 L 0,-22 -14,-70 h -17.5 z"
       id="M"
       inkscape:connector-curvature="0" />
    <path
       d="M 0,0 A 31.5,35 0 0 0 0,-70 31.5,35 0 0 0 0,0 m 0,-13 a 18.5,22 0 0 0 0,-44 18.5,22 0 0 0 0,44"
       id="O"
       inkscape:connector-curvature="0"
       style="fill-rule:evenodd" />
    <path
       d="m -31.5,0 h 13 v -26 h 28 a 22,22 0 0 0 0,-44 h -40 z m 13,-39 h 27 a 9,9 0 0 0 0,-18 h -27 z"
       id="P"
       inkscape:connector-curvature="0"
       style="fill-rule:evenodd" />
    <g
       id="R">
      <use
         id="use1025"
         xlink:href="#P"
         x="0"
         y="0"
         width="100%"
         height="100%" />
      <path
         id="path1027"
         d="m 28,0 c 0,-10 0,-32 -15,-32 H -6 c 22,0 22,22 22,32"
         inkscape:connector-curvature="0" />
    </g>
    <path
       d="m -15.75,-22 c 0,7 6.75,10.5 16.75,10.5 10,0 14.74,-3.25 14.75,-7.75 C 15.75,-33.5 -31,-24.5 -30.75,-49.5 -30.5,-71 -6,-70 3,-70 c 9,0 26,4 25.75,21.25 H 13.5 c 0,-7.5 -7,-10.25 -15,-10.25 -7.75,0 -13.25,1.25 -13.25,8.5 -0.25,11.75 46.25,4 46.25,28.75 C 31.5,-3.5 13.5,0 0,0 -11.5,0 -31.55,-4.5 -31.5,-22 Z"
       id="S"
       inkscape:connector-curvature="0" />
    <g
       id="star"
       style="fill:#ffffff">
      <g
         id="c">
        <path
           d="M 0,-1 V 0 H 0.5"
           transform="rotate(18,0,-1)"
           id="t"
           inkscape:connector-curvature="0" />
        <use
           id="use1032"
           transform="scale(-1,1)"
           xlink:href="#t"
           x="0"
           y="0"
           width="100%"
           height="100%" />
      </g>
      <use
         id="use1035"
         transform="rotate(72)"
         xlink:href="#c"
         x="0"
         y="0"
         width="100%"
         height="100%" />
      <use
         id="use1037"
         transform="rotate(-72)"
         xlink:href="#c"
         x="0"
         y="0"
         width="100%"
         height="100%" />
      <use
         id="use1039"
         transform="rotate(144)"
         xlink:href="#c"
         x="0"
         y="0"
         width="100%"
         height="100%" />
      <use
         id="use1041"
         transform="rotate(-144)"
         xlink:href="#c"
         x="0"
         y="0"
         width="100%"
         height="100%" />
    </g>
    <use
       transform="scale(31.5)"
       xlink:href="#star"
       id="star1"
       x="0"
       y="0"
       width="100%"
       height="100%" />
    <use
       transform="scale(26.25)"
       xlink:href="#star"
       id="star2"
       x="0"
       y="0"
       width="100%"
       height="100%" />
    <use
       transform="scale(21)"
       xlink:href="#star"
       id="star3"
       x="0"
       y="0"
       width="100%"
       height="100%" />
    <use
       transform="scale(15)"
       xlink:href="#star"
       id="star4"
       x="0"
       y="0"
       width="100%"
       height="100%" />
    <use
       transform="scale(10.5)"
       xlink:href="#star"
       id="star5"
       x="0"
       y="0"
       width="100%"
       height="100%" />
    <path
       d="m -31.5,0 h 33 a 30,30 0 0 0 30,-30 v -10 a 30,30 0 0 0 -30,-30 h -33 z m 13,-13 h 19 a 19,19 0 0 0 19,-19 v -6 a 19,19 0 0 0 -19,-19 h -19 z"
       id="D-3"
       inkscape:connector-curvature="0"
       style="fill-rule:evenodd" />
    <path
       d="M 0,0 H 63 V -13 H 12 V -31 H 52 V -43 H 12 V -57 H 60 V -70 H 0 Z"
       transform="translate(-31.5)"
       id="E-6"
       inkscape:connector-curvature="0" />
    <path
       d="m -26.25,0 h 52.5 v -12 h -40.5 v -16 h 33 v -12 h -33 V -51 H 25 v -12 h -51.25 z"
       id="e-7"
       inkscape:connector-curvature="0" />
    <g
       id="G-5">
      <clipPath
         id="gcut-3">
        <path
           id="path1361"
           d="m -31.5,0 v -70 h 63 V 0 Z M 0,-47 v 12 h 31.5 v -12 z"
           inkscape:connector-curvature="0" />
      </clipPath>
      <use
         id="use1364"
         clip-path="url(#gcut-3)"
         xlink:href="#O-6"
         x="0"
         y="0"
         width="100%"
         height="100%" />
      <rect
         id="rect1366"
         width="26.5"
         height="10"
         x="5"
         y="-35" />
      <rect
         id="rect1368"
         width="10"
         height="35"
         x="21.5"
         y="-35" />
    </g>
    <path
       d="m -31.5,0 h 12 v -48 l 14,48 h 11 l 14,-48 V 0 h 12 V -70 H 14 L 0,-22 -14,-70 h -17.5 z"
       id="M-5"
       inkscape:connector-curvature="0" />
    <path
       d="M 0,0 A 31.5,35 0 0 0 0,-70 31.5,35 0 0 0 0,0 m 0,-13 a 18.5,22 0 0 0 0,-44 18.5,22 0 0 0 0,44"
       id="O-6"
       inkscape:connector-curvature="0"
       style="fill-rule:evenodd" />
    <path
       d="m -31.5,0 h 13 v -26 h 28 a 22,22 0 0 0 0,-44 h -40 z m 13,-39 h 27 a 9,9 0 0 0 0,-18 h -27 z"
       id="P-2"
       inkscape:connector-curvature="0"
       style="fill-rule:evenodd" />
    <g
       id="R-9">
      <use
         id="use1374"
         xlink:href="#P-2"
         x="0"
         y="0"
         width="100%"
         height="100%" />
      <path
         id="path1376"
         d="m 28,0 c 0,-10 0,-32 -15,-32 H -6 c 22,0 22,22 22,32"
         inkscape:connector-curvature="0" />
    </g>
    <path
       d="m -15.75,-22 c 0,7 6.75,10.5 16.75,10.5 10,0 14.74,-3.25 14.75,-7.75 C 15.75,-33.5 -31,-24.5 -30.75,-49.5 -30.5,-71 -6,-70 3,-70 c 9,0 26,4 25.75,21.25 H 13.5 c 0,-7.5 -7,-10.25 -15,-10.25 -7.75,0 -13.25,1.25 -13.25,8.5 -0.25,11.75 46.25,4 46.25,28.75 C 31.5,-3.5 13.5,0 0,0 -11.5,0 -31.55,-4.5 -31.5,-22 Z"
       id="S-1"
       inkscape:connector-curvature="0" />
    <g
       id="star-2"
       style="fill:#ffffff">
      <g
         id="c-7">
        <path
           d="M 0,-1 V 0 H 0.5"
           transform="rotate(18,0,-1)"
           id="t-0"
           inkscape:connector-curvature="0" />
        <use
           id="use1381"
           transform="scale(-1,1)"
           xlink:href="#t-0"
           x="0"
           y="0"
           width="100%"
           height="100%" />
      </g>
      <use
         id="use1384"
         transform="rotate(72)"
         xlink:href="#c-7"
         x="0"
         y="0"
         width="100%"
         height="100%" />
      <use
         id="use1386"
         transform="rotate(-72)"
         xlink:href="#c-7"
         x="0"
         y="0"
         width="100%"
         height="100%" />
      <use
         id="use1388"
         transform="rotate(144)"
         xlink:href="#c-7"
         x="0"
         y="0"
         width="100%"
         height="100%" />
      <use
         id="use1390"
         transform="rotate(-144)"
         xlink:href="#c-7"
         x="0"
         y="0"
         width="100%"
         height="100%" />
    </g>
    <use
       transform="scale(31.5)"
       xlink:href="#star-2"
       id="star1-9"
       x="0"
       y="0"
       width="100%"
       height="100%" />
    <use
       transform="scale(26.25)"
       xlink:href="#star-2"
       id="star2-3"
       x="0"
       y="0"
       width="100%"
       height="100%" />
    <use
       transform="scale(21)"
       xlink:href="#star-2"
       id="star3-6"
       x="0"
       y="0"
       width="100%"
       height="100%" />
    <use
       transform="scale(15)"
       xlink:href="#star-2"
       id="star4-0"
       x="0"
       y="0"
       width="100%"
       height="100%" />
    <use
       transform="scale(10.5)"
       xlink:href="#star-2"
       id="star5-6"
       x="0"
       y="0"
       width="100%"
       height="100%" />
    <clipPath
       id="band">
      <circle
         cy="0"
         cx="0"
         r="735"
         id="circle50" />
    </clipPath>
    <clipPath
       id="gcut-2">
      <path
         inkscape:connector-curvature="0"
         d="m -31.5,0 v -70 h 63 V 0 Z M 0,-47 v 12 h 31.5 v -12 z"
         id="path5" />
    </clipPath>
    <clipPath
       id="clipPath1002">
      <path
         inkscape:connector-curvature="0"
         d="m -31.5,0 v -70 h 63 V 0 Z M 0,-47 v 12 h 31.5 v -12 z"
         id="path1000" />
    </clipPath>
    <clipPath
       id="band-6">
      <circle
         cy="0"
         cx="0"
         r="735"
         id="circle50-1" />
    </clipPath>
    <clipPath
       id="gcut-8">
      <path
         inkscape:connector-curvature="0"
         d="m -31.5,0 v -70 h 63 V 0 Z M 0,-47 v 12 h 31.5 v -12 z"
         id="path5-7" />
    </clipPath>
    <clipPath
       id="clipPath1002-9">
      <path
         inkscape:connector-curvature="0"
         d="m -31.5,0 v -70 h 63 V 0 Z M 0,-47 v 12 h 31.5 v -12 z"
         id="path1000-2" />
    </clipPath>
    <clipPath
       clipPathUnits="userSpaceOnUse"
       id="clipPath2303">
      <path
         id="path2305"
         d="M 3.8272142e-4,-0.15920728 H 1.4396172 L 3.8272142e-4,0.84771138 Z"
         style="opacity:0.6;vector-effect:none;fill:#000000;fill-opacity:1;fill-rule:evenodd;stroke:#009246;stroke-width:0.000755;stroke-linecap:round;stroke-linejoin:round;stroke-miterlimit:4;stroke-dasharray:none;stroke-dashoffset:0;stroke-opacity:1"
         inkscape:connector-curvature="0"
         sodipodi:nodetypes="cccc" />
    </clipPath>
    <clipPath
       clipPathUnits="userSpaceOnUse"
       id="clipPath2307">
      <path
         style="opacity:0.6;vector-effect:none;fill:#000000;fill-opacity:1;fill-rule:evenodd;stroke:#009246;stroke-width:0.000755;stroke-linecap:round;stroke-linejoin:round;stroke-miterlimit:4;stroke-dasharray:none;stroke-dashoffset:0;stroke-opacity:1"
         d="M 1.4396172,0.68079281 V 1.6877115 H 3.8272142e-4 Z"
         id="path2309"
         inkscape:connector-curvature="0"
         sodipodi:nodetypes="cccc" />
    </clipPath>
    <linearGradient
       inkscape:collect="always"
       xlink:href="#linearGradient2340"
       id="linearGradient2342"
       x1="-0.27749577"
       y1="1.4059683"
       x2="-0.27749577"
       y2="1.4653131"
       gradientUnits="userSpaceOnUse"
       spreadMethod="reflect"
       gradientTransform="translate(0.71668057,-0.70712214)" />
    <clipPath
       clipPathUnits="userSpaceOnUse"
       id="clipPath2352">
      <rect
         style="opacity:0.6;vector-effect:none;fill:#000000;fill-opacity:1;fill-rule:evenodd;stroke:#009246;stroke-width:0.000755;stroke-linecap:round;stroke-linejoin:round;stroke-miterlimit:4;stroke-dasharray:none;stroke-dashoffset:0;stroke-opacity:1"
         id="rect2354"
         width="1.4393517"
         height="1.0068164"
         x="0.00032412176"
         y="-0.15915614"
         transform="rotate(35.058633)" />
    </clipPath>
  </defs>
  <sodipodi:namedview
     pagecolor="#ffffff"
     bordercolor="#666666"
     borderopacity="1"
     objecttolerance="10"
     gridtolerance="10"
     guidetolerance="10"
     inkscape:pageopacity="0"
     inkscape:pageshadow="2"
     inkscape:window-width="1366"
     inkscape:window-height="744"
     id="namedview10"
     showgrid="false"
     inkscape:zoom="0.33195493"
     inkscape:cx="-565.5877"
     inkscape:cy="183.61013"
     inkscape:window-x="0"
     inkscape:window-y="0"
     inkscape:window-maximized="1"
     inkscape:current-layer="svg8"
     fit-margin-top="0"
     fit-margin-left="0"
     fit-margin-right="0"
     fit-margin-bottom="0" />
  <g
     id="g2272"
     transform="translate(-3.2412176e-4,-0.68079281)"
     clip-path="url(#clipPath2307)">
    <rect
       style="fill:#009246;stroke-width:1"
       y="0.68025213"
       x="0"
       id="rect2"
       height="1.008"
       width="1.4399999" />
    <rect
       style="fill:#ffffff;stroke-width:1"
       y="0.68025213"
       id="rect4"
       x="0.47999996"
       height="1.008"
       width="0.95999998" />
    <rect
       style="fill:#ce2b37;stroke-width:0.99999994"
       y="0.68025213"
       id="rect6"
       x="0.95999992"
       height="1.008"
       width="0.47999999" />
  </g>
  <image
     sodipodi:absref="/home/dognew/000/MyTrabs/GitHub/corso-di-italiano/imgs/Flag_of_Brazil.svg.png"
     xlink:href="Flag_of_Brazil.svg.png"
     transform="translate(-3.2412176e-4,0.15920728)"
     clip-path="url(#clipPath2303)"
     style="stroke-width:1.0002501"
     width="1.4399999"
     height="1.008"
     preserveAspectRatio="none"
     id="image2252"
     x="0"
     y="-0.15974796" />
  <rect
     style="opacity:0.4;vector-effect:none;fill:url(#linearGradient2342);fill-opacity:1;fill-rule:evenodd;stroke:none;stroke-width:0.00075591;stroke-linecap:round;stroke-linejoin:round;stroke-miterlimit:4;stroke-dasharray:none;stroke-dashoffset:0;stroke-opacity:1"
     id="rect2318"
     width="2.0169206"
     height="0.12182741"
     x="-0.63695735"
     y="0.63636345"
     transform="rotate(-35.058633,0.25185872,0.08011672)"
     inkscape:transform-center-x="0.73665583"
     inkscape:transform-center-y="0.49728569"
     clip-path="url(#clipPath2352)" />
</svg>
