<?xml version="1.0" encoding="UTF-8" standalone="no"?>
<svg
   xmlns:dc="http://purl.org/dc/elements/1.1/"
   xmlns:cc="http://creativecommons.org/ns#"
   xmlns:rdf="http://www.w3.org/1999/02/22-rdf-syntax-ns#"
   xmlns:svg="http://www.w3.org/2000/svg"
   xmlns="http://www.w3.org/2000/svg"
   xmlns:xlink="http://www.w3.org/1999/xlink"
   xmlns:sodipodi="http://sodipodi.sourceforge.net/DTD/sodipodi-0.dtd"
   xmlns:inkscape="http://www.inkscape.org/namespaces/inkscape"
   width="719.67584"
   height="503.45935"
   viewBox="0 0 1.4393517 1.0069187"
   version="1.1"
   id="svg8"
   sodipodi:docname="Translate_of_Brazil_to_Italy.svg"
   inkscape:version="0.92.3 (unknown)"
   inkscape:export-filename="/home/dognew/000/MyTrabs/GitHub/corso-di-italiano/imgs/Translate_of_Brazil_to_Italy.svg.png"
   inkscape:export-xdpi="96"
   inkscape:export-ydpi="96">
  <metadata
     id="metadata14">
    <rdf:RDF>
      <cc:Work
         rdf:about="">
        <dc:format>image/svg+xml</dc:format>
        <dc:type
           rdf:resource="http://purl.org/dc/dcmitype/StillImage" />
        <dc:title />
      </cc:Work>
    </rdf:RDF>
  </metadata>
  <defs
     id="defs12">
    <linearGradient
       inkscape:collect="always"
       id="linearGradient2340">
      <stop
         style="stop-color:#000000;stop-opacity:1;"
         offset="0"
         id="stop2336" />
      <stop
         style="stop-color:#000000;stop-opacity:0"
         offset="1"
         id="stop2338" />
    </linearGradient>
    <path
       d="m -31.5,0 h 33 a 30,30 0 0 0 30,-30 v -10 a 30,30 0 0 0 -30,-30 h -33 z m 13,-13 h 19 a 19,19 0 0 0 19,-19 v -6 a 19,19 0 0 0 -19,-19 h -19 z"
       id="D"
       inkscape:connector-curvature="0"
       style="fill-rule:evenodd" />
    <path
       d="M 0,0 H 63 V -13 H 12 V -31 H 52 V -43 H 12 V -57 H 60 V -70 H 0 Z"
       transform="translate(-31.5)"
       id="E"
       inkscape:connector-curvature="0" />
    <path
       d="m -26.25,0 h 52.5 v -12 h -40.5 v -16 h 33 v -12 h -33 V -51 H 25 v -12 h -51.25 z"
       id="e"
       inkscape:connector-curvature="0" />
    <g
       id="G">
      <clipPath
         id="gcut">
        <path
           id="path1012"
           d="m -31.5,0 v -70 h 63 V 0 Z M 0,-47 v 12 h 31.5 v -12 z"
           inkscape:connector-curvature="0" />
      </clipPath>
      <use
         id="use1015"
         clip-path="url(#gcut)"
         xlink:href="#O"
         x="0"
         y="0"
         width="100%"
         height="100%" />
      <rect
         id="rect1017"
         width="26.5"
         height="10"
         x="5"
         y="-35" />
      <rect
         id="rect1019"
         width="10"
         height="35"
         x="21.5"
         y="-35" />
    </g>
    <path
       d="m -31.5,0 h 12 v -48 l 14,48 h 11 l 14,-48 V 0 h 12 V -70 H 14 L 0,-22 -14,-70 h -17.5 z"
       id="M"
       inkscape:connector-curvature="0" />
    <path
       d="M 0,0 A 31.5,35 0 0 0 0,-70 31.5,35 0 0 0 0,0 m 0,-13 a 18.5,22 0 0 0 0,-44 18.5,22 0 0 0 0,44"
       id="O"
       inkscape:connector-curvature="0"
       style="fill-rule:evenodd" />
    <path
       d="m -31.5,0 h 13 v -26 h 28 a 22,22 0 0 0 0,-44 h -40 z m 13,-39 h 27 a 9,9 0 0 0 0,-18 h -27 z"
       id="P"
       inkscape:connector-curvature="0"
       style="fill-rule:evenodd" />
    <g
       id="R">
      <use
         id="use1025"
         xlink:href="#P"
         x="0"
         y="0"
         width="100%"
         height="100%" />
      <path
         id="path1027"
         d="m 28,0 c 0,-10 0,-32 -15,-32 H -6 c 22,0 22,22 22,32"
         inkscape:connector-curvature="0" />
    </g>
    <path
       d="m -15.75,-22 c 0,7 6.75,10.5 16.75,10.5 10,0 14.74,-3.25 14.75,-7.75 C 15.75,-33.5 -31,-24.5 -30.75,-49.5 -30.5,-71 -6,-70 3,-70 c 9,0 26,4 25.75,21.25 H 13.5 c 0,-7.5 -7,-10.25 -15,-10.25 -7.75,0 -13.25,1.25 -13.25,8.5 -0.25,11.75 46.25,4 46.25,28.75 C 31.5,-3.5 13.5,0 0,0 -11.5,0 -31.55,-4.5 -31.5,-22 Z"
       id="S"
       inkscape:connector-curvature="0" />
    <g
       id="star"
       style="fill:#ffffff">
      <g
         id="c">
        <path
           d="M 0,-1 V 0 H 0.5"
           transform="rotate(18,0,-1)"
           id="t"
           inkscape:connector-curvature="0" />
        <use
           id="use1032"
           transform="scale(-1,1)"
           xlink:href="#t"
           x="0"
           y="0"
           width="100%"
           height="100%" />
      </g>
      <use
         id="use1035"
         transform="rotate(72)"
         xlink:href="#c"
         x="0"
         y="0"
         width="100%"
         height="100%" />
      <use
         id="use1037"
         transform="rotate(-72)"
         xlink:href="#c"
         x="0"
         y="0"
         width="100%"
         height="100%" />
      <use
         id="use1039"
         transform="rotate(144)"
         xlink:href="#c"
         x="0"
         y="0"
         width="100%"
         height="100%" />
      <use
         id="use1041"
         transform="rotate(-144)"
         xlink:href="#c"
         x="0"
         y="0"
         width="100%"
         height="100%" />
    </g>
    <use
       transform="scale(31.5)"
       xlink:href="#star"
       id="star1"
       x="0"
       y="0"
       width="100%"
       height="100%" />
    <use
       transform="scale(26.25)"
       xlink:href="#star"
       id="star2"
       x="0"
       y="0"
       width="100%"
       height="100%" />
    <use
       transform="scale(21)"
       xlink:href="#star"
       id="star3"
       x="0"
       y="0"
       width="100%"
       height="100%" />
    <use
       transform="scale(15)"
       xlink:href="#star"
       id="star4"
       x="0"
       y="0"
       width="100%"
       height="100%" />
    <use
       transform="scale(10.5)"
       xlink:href="#star"
       id="star5"
       x="0"
       y="0"
       width="100%"
       height="100%" />
    <path
       d="m -31.5,0 h 33 a 30,30 0 0 0 30,-30 v -10 a 30,30 0 0 0 -30,-30 h -33 z m 13,-13 h 19 a 19,19 0 0 0 19,-19 v -6 a 19,19 0 0 0 -19,-19 h -19 z"
       id="D-3"
       inkscape:connector-curvature="0"
       style="fill-rule:evenodd" />
    <path
       d="M 0,0 H 63 V -13 H 12 V -31 H 52 V -43 H 12 V -57 H 60 V -70 H 0 Z"
       transform="translate(-31.5)"
       id="E-6"
       inkscape:connector-curvature="0" />
    <path
       d="m -26.25,0 h 52.5 v -12 h -40.5 v -16 h 33 v -12 h -33 V -51 H 25 v -12 h -51.25 z"
       id="e-7"
       inkscape:connector-curvature="0" />
    <g
       id="G-5">
      <clipPath
         id="gcut-3">
        <path
           id="path1361"
           d="m -31.5,0 v -70 h 63 V 0 Z M 0,-47 v 12 h 31.5 v -12 z"
           inkscape:connector-curvature="0" />
      </clipPath>
      <use
         id="use1364"
         clip-path="url(#gcut-3)"
         xlink:href="#O-6"
         x="0"
         y="0"
         width="100%"
         height="100%" />
      <rect
         id="rect1366"
         width="26.5"
         height="10"
         x="5"
         y="-35" />
      <rect
         id="rect1368"
         width="10"
         height="35"
         x="21.5"
         y="-35" />
    </g>
    <path
       d="m -31.5,0 h 12 v -48 l 14,48 h 11 l 14,-48 V 0 h 12 V -70 H 14 L 0,-22 -14,-70 h -17.5 z"
       id="M-5"
       inkscape:connector-curvature="0" />
    <path
       d="M 0,0 A 31.5,35 0 0 0 0,-70 31.5,35 0 0 0 0,0 m 0,-13 a 18.5,22 0 0 0 0,-44 18.5,22 0 0 0 0,44"
       id="O-6"
       inkscape:connector-curvature="0"
       style="fill-rule:evenodd" />
    <path
       d="m -31.5,0 h 13 v -26 h 28 a 22,22 0 0 0 0,-44 h -40 z m 13,-39 h 27 a 9,9 0 0 0 0,-18 h -27 z"
       id="P-2"
       inkscape:connector-curvature="0"
       style="fill-rule:evenodd" />
    <g
       id="R-9">
      <use
         id="use1374"
         xlink:href="#P-2"
         x="0"
         y="0"
         width="100%"
         height="100%" />
      <path
         id="path1376"
         d="m 28,0 c 0,-10 0,-32 -15,-32 H -6 c 22,0 22,22 22,32"
         inkscape:connector-curvature="0" />
    </g>
    <path
       d="m -15.75,-22 c 0,7 6.75,10.5 16.75,10.5 10,0 14.74,-3.25 14.75,-7.75 C 15.75,-33.5 -31,-24.5 -30.75,-49.5 -30.5,-71 -6,-70 3,-70 c 9,0 26,4 25.75,21.25 H 13.5 c 0,-7.5 -7,-10.25 -15,-10.25 -7.75,0 -13.25,1.25 -13.25,8.5 -0.25,11.75 46.25,4 46.25,28.75 C 31.5,-3.5 13.5,0 0,0 -11.5,0 -31.55,-4.5 -31.5,-22 Z"
       id="S-1"
       inkscape:connector-curvature="0" />
    <g
       id="star-2"
       style="fill:#ffffff">
      <g
         id="c-7">
        <path
           d="M 0,-1 V 0 H 0.5"
           transform="rotate(18,0,-1)"
           id="t-0"
           inkscape:connector-curvature="0" />
        <use
           id="use1381"
           transform="scale(-1,1)"
           xlink:href="#t-0"
           x="0"
           y="0"
           width="100%"
           height="100%" />
      </g>
      <use
         id="use1384"
         transform="rotate(72)"
         xlink:href="#c-7"
         x="0"
         y="0"
         width="100%"
         height="100%" />
      <use
         id="use1386"
         transform="rotate(-72)"
         xlink:href="#c-7"
         x="0"
         y="0"
         width="100%"
         height="100%" />
      <use
         id="use1388"
         transform="rotate(144)"
         xlink:href="#c-7"
         x="0"
         y="0"
         width="100%"
         height="100%" />
      <use
         id="use1390"
         transform="rotate(-144)"
         xlink:href="#c-7"
         x="0"
         y="0"
         width="100%"
         height="100%" />
    </g>
    <use
       transform="scale(31.5)"
       xlink:href="#star-2"
       id="star1-9"
       x="0"
       y="0"
       width="100%"
       height="100%" />
    <use
       transform="scale(26.25)"
       xlink:href="#star-2"
       id="star2-3"
       x="0"
       y="0"
       width="100%"
       height="100%" />
    <use
       transform="scale(21)"
       xlink:href="#star-2"
       id="star3-6"
       x="0"
       y="0"
       width="100%"
       height="100%" />
    <use
       transform="scale(15)"
       xlink:href="#star-2"
       id="star4-0"
       x="0"
       y="0"
       width="100%"
       height="100%" />
    <use
       transform="scale(10.5)"
       xlink:href="#star-2"
       id="star5-6"
       x="0"
       y="0"
       width="100%"
       height="100%" />
    <clipPath
       id="band">
      <circle
         cy="0"
         cx="0"
         r="735"
         id="circle50" />
    </clipPath>
    <clipPath
       id="gcut-2">
      <path
         inkscape:connector-curvature="0"
         d="m -31.5,0 v -70 h 63 V 0 Z M 0,-47 v 12 h 31.5 v -12 z"
         id="path5" />
    </clipPath>
    <clipPath
       id="clipPath1002">
      <path
         inkscape:connector-curvature="0"
         d="m -31.5,0 v -70 h 63 V 0 Z M 0,-47 v 12 h 31.5 v -12 z"
         id="path1000" />
    </clipPath>
    <clipPath
       id="band-6">
      <circle
         cy="0"
         cx="0"
         r="735"
         id="circle50-1" />
    </clipPath>
    <clipPath
       id="gcut-8">
      <path
         inkscape:connector-curvature="0"
         d="m -31.5,0 v -70 h 63 V 0 Z M 0,-47 v 12 h 31.5 v -12 z"
         id="path5-7" />
    </clipPath>
    <clipPath
       id="clipPath1002-9">
      <path
         inkscape:connector-curvature="0"
         d="m -31.5,0 v -70 h 63 V 0 Z M 0,-47 v 12 h 31.5 v -12 z"
         id="path1000-2" />
    </clipPath>
    <linearGradient
       inkscape:collect="always"
       xlink:href="#linearGradient2340"
       id="linearGradient2342"
       x1="-0.27749577"
       y1="1.4059683"
       x2="-0.27749577"
       y2="1.4653131"
       gradientUnits="userSpaceOnUse"
       spreadMethod="reflect"
       gradientTransform="translate(0.71668057,-0.70712214)" />
    <clipPath
       clipPathUnits="userSpaceOnUse"
       id="clipPath2352">
      <rect
         style="opacity:0.6;vector-effect:none;fill:#000000;fill-opacity:1;fill-rule:evenodd;stroke:#009246;stroke-width:0.000755;stroke-linecap:round;stroke-linejoin:round;stroke-miterlimit:4;stroke-dasharray:none;stroke-dashoffset:0;stroke-opacity:1"
         id="rect2354"
         width="1.4393517"
         height="1.0068164"
         x="0.00032412176"
         y="-0.15915614"
         transform="rotate(35.058633)" />
    </clipPath>
    <clipPath
       clipPathUnits="userSpaceOnUse"
       id="clipPath930">
      <path
         sodipodi:nodetypes="cccc"
         inkscape:connector-curvature="0"
         id="path932"
         d="M 1.4392931,0 V 1.0069187 H 5.859966e-5 Z"
         style="opacity:0.6;vector-effect:none;fill:#000000;fill-opacity:1;fill-rule:evenodd;stroke:#009246;stroke-width:0.000755;stroke-linecap:round;stroke-linejoin:round;stroke-miterlimit:4;stroke-dasharray:none;stroke-dashoffset:0;stroke-opacity:1" />
    </clipPath>
    <clipPath
       clipPathUnits="userSpaceOnUse"
       id="clipPath934">
      <path
         sodipodi:nodetypes="cccc"
         inkscape:connector-curvature="0"
         style="opacity:0.6;vector-effect:none;fill:#000000;fill-opacity:1;fill-rule:evenodd;stroke:#009246;stroke-width:0.000755;stroke-linecap:round;stroke-linejoin:round;stroke-miterlimit:4;stroke-dasharray:none;stroke-dashoffset:0;stroke-opacity:1"
         d="M 3.8271961e-4,0.68079281 H 1.4396172 L 3.8271961e-4,1.6877115 Z"
         id="path936" />
    </clipPath>
    <filter
       inkscape:collect="always"
       style="color-interpolation-filters:sRGB"
       id="filter975"
       x="-0.031109104"
       width="1.0622182"
       y="-0.042715647"
       height="1.0854313">
      <feGaussianBlur
         inkscape:collect="always"
         stdDeviation="0.014052418"
         id="feGaussianBlur977" />
    </filter>
    <filter
       inkscape:collect="always"
       style="color-interpolation-filters:sRGB"
       id="filter1061"
       x="-0.020934668"
       width="1.0418693"
       y="-0.028116996"
       height="1.056234">
      <feGaussianBlur
         inkscape:collect="always"
         stdDeviation="0.010000531"
         id="feGaussianBlur1063" />
    </filter>
    <clipPath
       clipPathUnits="userSpaceOnUse"
       id="clipPath917">
      <path
         id="path919"
         d="M 5.860521e-5,-1.9527846e-8 H 1.4392931 L 5.860521e-5,1.0069187 Z"
         style="opacity:0.6;vector-effect:none;fill:#000000;fill-opacity:1;fill-rule:evenodd;stroke:#009246;stroke-width:0.000755;stroke-linecap:round;stroke-linejoin:round;stroke-miterlimit:4;stroke-dasharray:none;stroke-dashoffset:0;stroke-opacity:1"
         inkscape:connector-curvature="0"
         sodipodi:nodetypes="cccc" />
    </clipPath>
    <clipPath
       clipPathUnits="userSpaceOnUse"
       id="clipPath921">
      <path
         style="opacity:0.6;vector-effect:none;fill:#000000;fill-opacity:1;fill-rule:evenodd;stroke:#009246;stroke-width:0.000755;stroke-linecap:round;stroke-linejoin:round;stroke-miterlimit:4;stroke-dasharray:none;stroke-dashoffset:0;stroke-opacity:1"
         d="M 1.4396172,0.68079284 V 1.6877115 H 3.8269334e-4 Z"
         id="path923"
         inkscape:connector-curvature="0"
         sodipodi:nodetypes="cccc" />
    </clipPath>
    <clipPath
       clipPathUnits="userSpaceOnUse"
       id="clipPath920">
      <path
         sodipodi:nodetypes="cccc"
         inkscape:connector-curvature="0"
         style="opacity:0.6;vector-effect:none;fill:#000000;fill-opacity:1;fill-rule:evenodd;stroke:#009246;stroke-width:0.000755;stroke-linecap:round;stroke-linejoin:round;stroke-miterlimit:4;stroke-dasharray:none;stroke-dashoffset:0;stroke-opacity:1"
         d="M 2.6551019e-4,0.68079277 H 1.4395 L 2.6551019e-4,1.6877115 Z"
         id="path922" />
    </clipPath>
    <clipPath
       clipPathUnits="userSpaceOnUse"
       id="clipPath924">
      <path
         sodipodi:nodetypes="cccc"
         inkscape:connector-curvature="0"
         id="path926"
         d="M 1.4393517,5e-8 V 1.0069187 H 1.171798e-4 Z"
         style="opacity:0.6;vector-effect:none;fill:#000000;fill-opacity:1;fill-rule:evenodd;stroke:#009246;stroke-width:0.000755;stroke-linecap:round;stroke-linejoin:round;stroke-miterlimit:4;stroke-dasharray:none;stroke-dashoffset:0;stroke-opacity:1" />
    </clipPath>
    <clipPath
       clipPathUnits="userSpaceOnUse"
       id="clipPath947">
      <path
         inkscape:connector-curvature="0"
         id="path949"
         d="m 0.72049704,0.1446019 c 0.026308,-4e-8 0.050151,0.008622 0.068993,0.0229975 0.018842,0.0143751 0.032854,0.0370892 0.032854,0.0624219 V 0.272731 H 1.1508803 c 0.017212,0 0.031433,0.009708 0.039424,0.0213548 0.00799,0.0116473 0.011499,0.0247242 0.011499,0.0394244 v 0.335107 c 0,0.0147002 -0.00351,0.027777 -0.011499,0.0394243 -0.00799,0.0116473 -0.022212,0.0229976 -0.039424,0.0229976 H 0.82234404 v 0.0427097 c 0,0.0269728 -0.013128,0.0494106 -0.032854,0.0673499 -0.00986,0.00897 -0.023213,0.0165409 -0.037782,0.0197122 -0.014569,0.003172 -0.031457,0.002035 -0.045995,-0.006571 L 0.30161334,0.61440874 c -0.031996,-0.0189396 -0.064065,-0.0597338 -0.064065,-0.113345 0,-0.0536112 0.032072,-0.0927646 0.064065,-0.11170234 l 0.4040996,-0.23983146 a 0.02691638,0.02691638 0 0 1 0.00493,-0.003285 0.02691638,0.02691638 0 0 1 0.00493,-0.001643 0.02691638,0.02691638 0 0 1 0.00493,-4e-8 z m 0.00493,0.0558512 -0.3975288,0.23490344 c -0.014547,0.008611 -0.037782,0.0361059 -0.037782,0.0657073 0,0.0296013 0.023238,0.0587412 0.037782,0.0673499 l 0.4057422,0.2398315 c 0.00336,0.001989 0.00535,6.2354e-4 0.00821,0 0.00286,-6.2358e-4 0.00707,-0.002539 0.011499,-0.006571 0.00887,-0.008063 0.014784,-0.0231662 0.014784,-0.0279256 v -0.0706353 a 0.02691638,0.02691638 0 0 1 0,-0.001643 0.02691638,0.02691638 0 0 1 0.00164,-0.008214 0.02691638,0.02691638 0 0 1 0.00328,-0.004928 0.02691638,0.02691638 0 0 1 0.00164,-0.001643 0.02691638,0.02691638 0 0 1 0.00164,-0.001643 0.02691638,0.02691638 0 0 1 0.00657,-0.004928 0.02691638,0.02691638 0 0 1 0.00164,-0.001643 0.02691638,0.02691638 0 0 1 0.00821,-0.001643 0.02691638,0.02691638 0 0 1 0.00164,0 H 1.1459269 c 7.975e-4,-0.001575 0.00328,-0.004142 0.00328,-0.008214 v -0.335104 c 0,-0.004789 -0.00255,-0.007143 -0.00328,-0.008214 H 0.79439314 a 0.02691638,0.02691638 0 0 1 -0.00164,0 0.02691638,0.02691638 0 0 1 -0.00493,0 0.02691638,0.02691638 0 0 1 -0.00493,-0.003285 0.02691638,0.02691638 0 0 1 -0.00493,-0.001643 0.02691638,0.02691638 0 0 1 -0.00328,-0.004928 0.02691638,0.02691638 0 0 1 -0.00164,-0.001643 0.02691638,0.02691638 0 0 1 -0.00328,-0.004928 0.02691638,0.02691638 0 0 1 -0.00164,-0.004928 0.02691638,0.02691638 0 0 1 0,-0.004928 v -0.0689926 c 0,-0.0064 -0.0032,-0.0133801 -0.011499,-0.0197122 -0.00716,-0.005465 -0.018551,-0.008755 -0.031211,-0.009856 z"
         style="color:#000000;font-style:normal;font-variant:normal;font-weight:normal;font-stretch:normal;font-size:medium;line-height:normal;font-family:sans-serif;font-variant-ligatures:normal;font-variant-position:normal;font-variant-caps:normal;font-variant-numeric:normal;font-variant-alternates:normal;font-feature-settings:normal;text-indent:0;text-align:start;text-decoration:none;text-decoration-line:none;text-decoration-style:solid;text-decoration-color:#000000;letter-spacing:normal;word-spacing:normal;text-transform:none;writing-mode:lr-tb;direction:ltr;text-orientation:mixed;dominant-baseline:auto;baseline-shift:baseline;text-anchor:start;white-space:normal;shape-padding:0;clip-rule:nonzero;display:inline;overflow:visible;visibility:visible;opacity:1;isolation:auto;mix-blend-mode:normal;color-interpolation:sRGB;color-interpolation-filters:linearRGB;solid-color:#000000;solid-opacity:1;vector-effect:none;fill:#ffffff;fill-opacity:1;fill-rule:evenodd;stroke:none;stroke-width:0.053825;stroke-linecap:round;stroke-linejoin:round;stroke-miterlimit:4;stroke-dasharray:none;stroke-dashoffset:0;stroke-opacity:1;color-rendering:auto;image-rendering:auto;shape-rendering:auto;text-rendering:auto;enable-background:accumulate" />
    </clipPath>
  </defs>
  <sodipodi:namedview
     pagecolor="#ffffff"
     bordercolor="#666666"
     borderopacity="1"
     objecttolerance="10"
     gridtolerance="10"
     guidetolerance="10"
     inkscape:pageopacity="0"
     inkscape:pageshadow="2"
     inkscape:window-width="1366"
     inkscape:window-height="744"
     id="namedview10"
     showgrid="false"
     inkscape:zoom="0.41502865"
     inkscape:cx="897.80326"
     inkscape:cy="84.615673"
     inkscape:window-x="0"
     inkscape:window-y="0"
     inkscape:window-maximized="1"
     inkscape:current-layer="svg8"
     fit-margin-top="0"
     fit-margin-left="0"
     fit-margin-right="0"
     fit-margin-bottom="0" />
  <image
     sodipodi:absref="/home/dognew/000/MyTrabs/GitHub/corso-di-italiano/imgs/Flag_of_Brazil.svg.png"
     xlink:href="Flag_of_Brazil.svg.png"
     y="-0.00054067816"
     x="-0.00038273525"
     id="image2252"
     preserveAspectRatio="none"
     height="1.008"
     width="1.4399999"
     style="stroke-width:1.0002501"
     clip-path="url(#clipPath924)" />
  <g
     id="g2272"
     transform="translate(-2.6551019e-4,-0.68079279)"
     clip-path="url(#clipPath920)">
    <rect
       style="fill:#009246;stroke-width:1"
       y="0.68025213"
       x="0"
       id="rect2"
       height="1.008"
       width="1.4399999" />
    <rect
       style="fill:#ffffff;stroke-width:1"
       y="0.68025213"
       id="rect4"
       x="0.47999996"
       height="1.008"
       width="0.95999998" />
    <rect
       style="fill:#ce2b37;stroke-width:0.99999994"
       y="0.68025213"
       id="rect6"
       x="0.95999992"
       height="1.008"
       width="0.47999999" />
  </g>
  <rect
     style="opacity:0.4;vector-effect:none;fill:url(#linearGradient2342);fill-opacity:1;fill-rule:evenodd;stroke:none;stroke-width:0.00075591;stroke-linecap:round;stroke-linejoin:round;stroke-miterlimit:4;stroke-dasharray:none;stroke-dashoffset:0;stroke-opacity:1"
     id="rect2318"
     width="2.0169206"
     height="0.12182741"
     x="-0.63695735"
     y="0.63636345"
     transform="rotate(-35.058633,0.25185872,0.08011672)"
     inkscape:transform-center-x="0.73665583"
     inkscape:transform-center-y="0.49728569"
     clip-path="url(#clipPath2352)" />
  <rect
     clip-path="url(#clipPath2352)"
     inkscape:transform-center-y="0.49728569"
     inkscape:transform-center-x="0.73665583"
     transform="rotate(-35.058633,0.25185872,0.08011672)"
     y="0.63636345"
     x="-0.63695735"
     height="0.12182741"
     width="2.0169206"
     id="rect993"
     style="opacity:0.4;vector-effect:none;fill:url(#linearGradient2342);fill-opacity:1;fill-rule:evenodd;stroke:none;stroke-width:0.00075591;stroke-linecap:round;stroke-linejoin:round;stroke-miterlimit:4;stroke-dasharray:none;stroke-dashoffset:0;stroke-opacity:1" />
  <path
     style="color:#000000;font-style:normal;font-variant:normal;font-weight:normal;font-stretch:normal;font-size:medium;line-height:normal;font-family:sans-serif;font-variant-ligatures:normal;font-variant-position:normal;font-variant-caps:normal;font-variant-numeric:normal;font-variant-alternates:normal;font-feature-settings:normal;text-indent:0;text-align:start;text-decoration:none;text-decoration-line:none;text-decoration-style:solid;text-decoration-color:#000000;letter-spacing:normal;word-spacing:normal;text-transform:none;writing-mode:lr-tb;direction:ltr;text-orientation:mixed;dominant-baseline:auto;baseline-shift:baseline;text-anchor:start;white-space:normal;shape-padding:0;clip-rule:nonzero;display:inline;overflow:visible;visibility:visible;opacity:0.8;isolation:auto;mix-blend-mode:normal;color-interpolation:sRGB;color-interpolation-filters:linearRGB;solid-color:#000000;solid-opacity:1;vector-effect:none;fill:#000000;fill-opacity:1;fill-rule:evenodd;stroke:none;stroke-width:0.12800001;stroke-linecap:round;stroke-linejoin:round;stroke-miterlimit:4;stroke-dasharray:none;stroke-dashoffset:0;stroke-opacity:1;filter:url(#filter975);color-rendering:auto;image-rendering:auto;shape-rendering:auto;text-rendering:auto;enable-background:accumulate"
     d="m 0.71967571,0.04440556 c -0.037832,-5e-8 -0.072893,0.0113298 -0.1015625,0.0332031 -0.02867,0.0218734 -0.052734,0.0582334 -0.052734,0.0996094 v 0.0195313 h -0.359375 c -0.032981,0 -0.05845,0.018926 -0.072266,0.0390625 -0.013816,0.0201365 -0.019531,0.043036 -0.019531,0.0664063 v 0.39648437 c 0,0.0233702 0.00572,0.0462698 0.019531,0.0664063 0.013816,0.0201365 0.039284,0.0390625 0.072266,0.0390625 h 0.359375 v 0.0195312 c 0,0.0452761 0.020872,0.0782678 0.050781,0.10546876 0.014955,0.0136005 0.034314,0.0259647 0.058594,0.03125 0.02428,0.005285 0.054195,4.9363e-4 0.078125,-0.0136719 L 1.2333475,0.66159306 c 0.048418,-0.0286606 0.091797,-0.0821395 0.091797,-0.16015625 0,-0.0780168 -0.043387,-0.13345338 -0.091797,-0.16210938 L 0.75287881,0.05417118 a 0.0640064,0.0640064 0 0 0 -0.0332031,-0.0097656 z m -0.011719,0.13085937 0.46093739,0.2734375 c 0.00692,0.004099 0.029297,0.0318126 0.029297,0.0527344 0,0.0209218 -0.022381,0.0466872 -0.029297,0.0507813 L 0.70014441,0.82956181 c -0.00225,-0.004667 -0.00586,-0.0108293 -0.00586,-0.005859 V 0.74167121 A 0.0640064,0.0640064 0 0 0 0.62983191,0.67721811 H 0.24116001 V 0.32370248 h 0.3886719 a 0.0640064,0.0640064 0 0 0 0.064453,-0.0644531 v -0.0800781 c 0.00196,-0.001497 0.00892,-0.002505 0.0136718,-0.003906 z"
     id="path965"
     inkscape:connector-curvature="0"
     transform="matrix(-0.84105283,0,0,0.84105283,1.3249613,0.08002344)" />
  <g
     id="g944"
     clip-path="url(#clipPath947)">
    <image
       sodipodi:absref="/home/dognew/000/MyTrabs/GitHub/corso-di-italiano/imgs/Flag_of_Brazil.svg.png"
       xlink:href="Flag_of_Brazil.svg.png"
       y="-0.00054067816"
       x="-0.00038273525"
       id="image928"
       preserveAspectRatio="none"
       height="1.008"
       width="1.4399999"
       style="stroke-width:1.0002501"
       clip-path="url(#clipPath924)" />
    <g
       id="g937"
       transform="translate(-2.6551019e-4,-0.68079279)"
       clip-path="url(#clipPath920)">
      <rect
         style="fill:#009246;stroke-width:1"
         y="0.68025213"
         x="0"
         id="rect930"
         height="1.008"
         width="1.4399999" />
      <rect
         style="fill:#ffffff;stroke-width:1"
         y="0.68025213"
         id="rect932"
         x="0.47999996"
         height="1.008"
         width="0.95999998" />
      <rect
         style="fill:#ce2b37;stroke-width:0.99999994"
         y="0.68025213"
         id="rect935"
         x="0.95999992"
         height="1.008"
         width="0.47999999" />
    </g>
  </g>
  <path
     inkscape:connector-curvature="0"
     id="path1035"
     d="m 0.7186993,0.15677627 c -0.03128,-4e-8 -0.0596287,0.0102519 -0.0820313,0.0273437 -0.0224025,0.0170918 -0.0390625,0.0440985 -0.0390625,0.0742188 v 0.0507812 h -0.390625 c -0.0204654,0 -0.0373733,0.0115422 -0.046875,0.0253906 -0.009502,0.0138485 -0.0136719,0.0293967 -0.0136719,0.046875 v 0.3984375 c -10e-9,0.0174783 0.00417,0.0330265 0.0136719,0.046875 0.009502,0.0138485 0.0264096,0.0273438 0.046875,0.0273438 h 0.390625 v 0.0507813 c 0,0.0320703 0.0156092,0.0587485 0.0390625,0.0800781 0.0117266,0.0106648 0.0275999,0.0196669 0.0449219,0.0234375 0.017322,0.00377 0.0374024,0.00242 0.0546875,-0.00781 L 1.2167462,0.71536997 c 0.038042,-0.0225189 0.076172,-0.0710226 0.076172,-0.13476562 0,-0.063743 -0.038133,-0.11029582 -0.076172,-0.1328125 L 0.73627742,0.16263565 a 0.0320032,0.0320032 0 0 0 -0.005859,-0.003906 0.0320032,0.0320032 0 0 0 -0.005859,-0.001953 0.0320032,0.0320032 0 0 0 -0.005859,0 z m -0.005859,0.0664062 0.4726563,0.27929688 c 0.017296,0.0102381 0.044922,0.0429294 0.044922,0.078125 0,0.0351955 -0.02763,0.0698425 -0.044922,0.0800781 L 0.7030743,0.94583878 c -0.003995,0.002365 -0.00636,7.414e-4 -0.009766,0 -0.003406,-7.4142e-4 -0.008401,-0.003019 -0.0136719,-0.007813 -0.0105416,-0.009587 -0.0175781,-0.0275443 -0.0175781,-0.0332031 v -0.0839844 a 0.0320032,0.0320032 0 0 0 0,-0.001953 0.0320032,0.0320032 0 0 0 -0.001953,-0.009766 0.0320032,0.0320032 0 0 0 -0.003906,-0.005859 0.0320032,0.0320032 0 0 0 -0.001953,-0.001953 0.0320032,0.0320032 0 0 0 -0.001953,-0.001953 0.0320032,0.0320032 0 0 0 -0.007813,-0.005859 0.0320032,0.0320032 0 0 0 -0.001953,-0.001953 0.0320032,0.0320032 0 0 0 -0.009766,-0.001953 0.0320032,0.0320032 0 0 0 -0.001953,0 H 0.21283992 c -9.4812e-4,-0.001873 -0.003906,-0.004925 -0.003906,-0.009766 v -0.3984375 c 0,-0.005694 0.003033,-0.008493 0.003906,-0.009766 h 0.41796876 a 0.0320032,0.0320032 0 0 0 0.001953,0 0.0320032,0.0320032 0 0 0 0.005859,0 0.0320032,0.0320032 0 0 0 0.005859,-0.003906 0.0320032,0.0320032 0 0 0 0.005859,-0.001953 0.0320032,0.0320032 0 0 0 0.003906,-0.005859 0.0320032,0.0320032 0 0 0 0.001953,-0.001953 0.0320032,0.0320032 0 0 0 0.003906,-0.005859 0.0320032,0.0320032 0 0 0 0.001953,-0.005859 0.0320032,0.0320032 0 0 0 0,-0.005859 v -0.0820312 c 0,-0.007609 0.003804,-0.0159088 0.0136719,-0.0234375 0.008516,-0.006498 0.0220565,-0.0104101 0.0371094,-0.0117188 z"
     style="color:#000000;font-style:normal;font-variant:normal;font-weight:normal;font-stretch:normal;font-size:medium;line-height:normal;font-family:sans-serif;font-variant-ligatures:normal;font-variant-position:normal;font-variant-caps:normal;font-variant-numeric:normal;font-variant-alternates:normal;font-feature-settings:normal;text-indent:0;text-align:start;text-decoration:none;text-decoration-line:none;text-decoration-style:solid;text-decoration-color:#000000;letter-spacing:normal;word-spacing:normal;text-transform:none;writing-mode:lr-tb;direction:ltr;text-orientation:mixed;dominant-baseline:auto;baseline-shift:baseline;text-anchor:start;white-space:normal;shape-padding:0;clip-rule:nonzero;display:inline;overflow:visible;visibility:visible;opacity:0.6;isolation:auto;mix-blend-mode:normal;color-interpolation:sRGB;color-interpolation-filters:linearRGB;solid-color:#000000;solid-opacity:1;vector-effect:none;fill:none;fill-opacity:1;fill-rule:evenodd;stroke:#000000;stroke-width:0.012;stroke-linecap:round;stroke-linejoin:round;stroke-miterlimit:4;stroke-dasharray:none;stroke-dashoffset:0;stroke-opacity:1;filter:url(#filter1061);color-rendering:auto;image-rendering:auto;shape-rendering:auto;text-rendering:auto;enable-background:accumulate"
     transform="matrix(-0.84105283,0,0,0.84105283,1.3249613,0.01274473)"
     clip-path="none" />
</svg>
